<?xml version="1.0" encoding="utf-8"?>
<!-- Generator: Adobe Illustrator 19.1.0, SVG Export Plug-In . SVG Version: 6.00 Build 0)  -->
<svg version="1.1" id="Layer_1" xmlns="http://www.w3.org/2000/svg" xmlns:xlink="http://www.w3.org/1999/xlink" x="0px" y="0px"
	 viewBox="0 0 110.2 77.5" style="enable-background:new 0 0 110.2 77.5;" xml:space="preserve">
<style type="text/css">
	.st0{fill:#E6E7E8;}
	.st1{fill:#6D6E71;}
	.st2{fill:#BCBEC0;}
</style>
<path class="st1" d="M38.6,5.5C19.6,5.5,4.2,20.9,4.2,40c0,19.1,15.4,34.5,34.5,34.5c9.4,0,17.8-3.8,24-9.9V74v0H72V48.5V40v0h-9.3
	H37.8v8.5v0h23.7c-3.4,9.4-12.3,16.1-22.9,16.1c-13.5,0-24.4-10.9-24.4-24.4c0-13.5,10.9-24.4,24.4-24.4c10,0,18.7,6.1,22.4,14.8
	h10.8C67.7,16.1,54.4,5.5,38.6,5.5"/>
<polygon class="st2" points="81.6,31.3 81.6,5.7 72.3,5.7 72.3,31.3 72.3,39.8 81.6,39.8 106.4,39.8 106.4,31.3 "/>
<polygon class="st2" points="37.8,40 37.8,48.5 62.7,48.5 62.7,74 72,74 72,48.5 72,40 62.7,40 "/>
</svg>
